Coordinates
nRows=409
nColumns=2
inDegrees=yes
endheader
time	ankle_angle_r	
2.62786	 19.653320	
2.66112	 19.668579	
2.69438	 19.729614	
2.72765	 19.668579	
2.76091	 19.760132	
2.79418	 19.760132	
2.82744	 19.653320	
2.8607	 19.744873	
2.89397	 19.760132	
2.92723	 19.622803	
2.9605	 19.577026	
2.99376	 19.638062	
3.02702	 19.638062	
3.06029	 19.653320	
3.09355	 19.592285	
3.12682	 19.668579	
3.16008	 19.668579	
3.19334	 19.546509	
3.22661	 19.607544	
3.25987	 19.622803	
3.29314	 19.561768	
3.3264	 19.546509	
3.35966	 19.653320	
3.39293	 19.592285	
3.42619	 19.622803	
3.45946	 19.668579	
3.49272	 19.592285	
3.52598	 19.607544	
3.55925	 19.699097	
3.59251	 19.638062	
3.62578	 19.638062	
3.65904	 19.683838	
3.6923	 19.561768	
3.72557	 19.531250	
3.75883	 19.577026	
3.7921	 19.470215	
3.82536	 19.485474	
3.85862	 19.561768	
3.89189	 19.454956	
3.92515	 19.470215	
3.95842	 19.546509	
3.99168	 19.515991	
4.02494	 19.500732	
4.05821	 19.531250	
4.09147	 19.485474	
4.12474	 19.470215	
4.158	 19.577026	
4.19126	 19.485474	
4.22453	 19.454956	
4.25779	 19.592285	
4.29106	 19.546509	
4.32432	 19.500732	
4.35758	 19.622803	
4.39085	 19.515991	
4.42411	 19.500732	
4.45738	 19.561768	
4.49064	 19.485474	
4.5239	 19.500732	
4.55717	 19.622803	
4.59043	 19.577026	
4.6237	 19.592285	
4.65696	 19.607544	
4.69022	 19.653320	
4.72349	 19.531250	
4.75675	 19.622803	
4.79002	 19.607544	
4.82328	 19.668579	
4.85654	 19.729614	
4.88981	 19.668579	
4.92307	 19.668579	
4.95634	 19.668579	
4.9896	 19.668579	
5.02286	 19.760132	
5.05613	 19.760132	
5.08939	 19.607544	
5.12266	 19.790649	
5.15592	 19.668579	
5.18918	 19.683838	
5.22245	 19.744873	
5.25571	 19.805908	
5.28898	 19.699097	
5.32224	 19.714355	
5.3555	 19.683838	
5.38877	 19.622803	
5.42203	 19.699097	
5.4553	 19.805908	
5.48856	 19.622803	
5.52182	 19.744873	
5.55509	 19.638062	
5.58835	 19.729614	
5.62162	 19.653320	
5.65488	 19.805908	
5.68814	 19.714355	
5.72141	 19.714355	
5.75467	 19.714355	
5.78794	 19.668579	
5.8212	 19.699097	
5.85446	 19.744873	
5.88773	 19.714355	
5.92099	 19.790649	
5.95426	 19.714355	
5.98752	 19.653320	
6.02078	 19.699097	
6.05405	 19.790649	
6.08731	 19.729614	
6.12058	 19.638062	
6.15384	 19.622803	
6.1871	 19.668579	
6.22037	 19.714355	
6.25363	 19.729614	
6.2869	 19.638062	
6.32016	 19.714355	
6.35342	 19.744873	
6.38669	 19.683838	
6.41995	 19.729614	
6.45322	 19.775391	
6.48648	 19.729614	
6.51974	 19.714355	
6.55301	 19.714355	
6.58627	 19.592285	
6.61954	 19.653320	
6.6528	 19.683838	
6.68606	 19.699097	
6.71933	 19.760132	
6.75259	 19.699097	
6.78586	 19.622803	
6.81912	 19.714355	
6.85238	 19.638062	
6.88565	 19.592285	
6.91891	 19.653320	
6.95218	 19.622803	
6.98544	 19.592285	
7.0187	 19.653320	
7.05197	 19.622803	
7.08523	 19.561768	
7.1185	 19.699097	
7.15176	 19.653320	
7.18502	 19.638062	
7.21829	 19.638062	
7.25155	 19.653320	
7.28482	 19.592285	
7.31808	 19.699097	
7.35134	 19.546509	
7.38461	 19.607544	
7.41787	 19.653320	
7.45114	 19.561768	
7.4844	 19.470215	
7.51766	 19.577026	
7.55093	 19.500732	
7.58419	 19.531250	
7.61746	 19.546509	
7.65072	 19.470215	
7.68398	 19.531250	
7.71725	 19.546509	
7.75051	 19.485474	
7.78378	 19.454956	
7.81704	 19.561768	
7.8503	 19.470215	
7.88357	 19.470215	
7.91683	 19.561768	
7.9501	 19.485474	
7.98336	 19.439697	
8.01662	 19.531250	
8.04989	 19.500732	
8.08315	 19.470215	
8.11642	 19.561768	
8.14968	 19.485474	
8.18294	 19.454956	
8.21621	 19.607544	
8.24947	 19.531250	
8.28274	 19.607544	
8.316	 19.607544	
8.34926	 19.607544	
8.38253	 19.622803	
8.41579	 19.729614	
8.44906	 19.638062	
8.48232	 19.607544	
8.51558	 19.668579	
8.54885	 19.592285	
8.58211	 19.714355	
8.61538	 19.638062	
8.64864	 19.638062	
8.6819	 19.699097	
8.71517	 19.699097	
8.74843	 19.653320	
8.7817	 19.775391	
8.81496	 19.714355	
8.84822	 19.607544	
8.88149	 19.760132	
8.91475	 19.760132	
8.94802	 19.622803	
8.98128	 19.699097	
9.01454	 19.729614	
9.04781	 19.607544	
9.08107	 19.744873	
9.11434	 19.744873	
9.1476	 19.744873	
9.18086	 19.790649	
9.21413	 19.775391	
9.24739	 19.729614	
9.28066	 19.760132	
9.31392	 19.805908	
9.34718	 19.622803	
9.38045	 19.714355	
9.41371	 19.805908	
9.44698	 19.638062	
9.48024	 19.714355	
9.5135	 19.668579	
9.54677	 19.622803	
9.58003	 19.683838	
9.6133	 19.714355	
9.64656	 19.607544	
9.67982	 19.622803	
9.71309	 19.744873	
9.74635	 19.699097	
9.77962	 19.699097	
9.81288	 19.714355	
9.84614	 19.668579	
9.87941	 19.638062	
9.91267	 19.744873	
9.94594	 19.622803	
9.9792	 19.729614	
10.0125	 19.714355	
10.0457	 19.683838	
10.079	 19.699097	
10.1123	 19.638062	
10.1455	 19.714355	
10.1788	 19.668579	
10.212	 19.607544	
10.2453	 19.683838	
10.2786	 19.714355	
10.3118	 19.622803	
10.3451	 19.653320	
10.3784	 19.683838	
10.4116	 19.546509	
10.4449	 19.531250	
10.4782	 19.607544	
10.5114	 19.546509	
10.5447	 19.500732	
10.578	 19.561768	
10.6112	 19.470215	
10.6445	 19.454956	
10.6777	 19.622803	
10.711	 19.531250	
10.7443	 19.577026	
10.7775	 19.592285	
10.8108	 19.470215	
10.8441	 19.454956	
10.8773	 19.500732	
10.9106	 19.500732	
10.9439	 19.454956	
10.9771	 19.546509	
11.0104	 19.485474	
11.0436	 19.454956	
11.0769	 19.561768	
11.1102	 19.515991	
11.1434	 19.454956	
11.1767	 19.592285	
11.21	 19.546509	
11.2432	 19.546509	
11.2765	 19.638062	
11.3098	 19.592285	
11.343	 19.577026	
11.3763	 19.607544	
11.4096	 19.561768	
11.4428	 19.592285	
11.4761	 19.714355	
11.5093	 19.653320	
11.5426	 19.622803	
11.5759	 19.653320	
11.6091	 19.638062	
11.6424	 19.622803	
11.6757	 19.699097	
11.7089	 19.577026	
11.7422	 19.622803	
11.7755	 19.638062	
11.8087	 19.638062	
11.842	 19.653320	
11.8752	 19.607544	
11.9085	 19.515991	
11.9418	 19.577026	
11.975	 19.668579	
12.0083	 19.515991	
12.0416	 19.683838	
12.0748	 19.607544	
12.1081	 19.561768	
12.1414	 19.622803	
12.1746	 19.622803	
12.2079	 19.531250	
12.2412	 19.622803	
12.2744	 19.683838	
12.3077	 19.638062	
12.3409	 19.607544	
12.3742	 19.653320	
12.4075	 19.561768	
12.4407	 19.622803	
12.474	 19.607544	
12.5073	 19.561768	
12.5405	 19.638062	
12.5738	 19.607544	
12.6071	 19.561768	
12.6403	 19.638062	
12.6736	 19.638062	
12.7068	 19.531250	
12.7401	 19.668579	
12.7734	 19.668579	
12.8066	 19.607544	
12.8399	 19.638062	
12.8732	 19.790649	
12.9064	 19.683838	
12.9397	 19.714355	
12.973	 19.744873	
13.0062	 19.607544	
13.0395	 19.714355	
13.0728	 19.760132	
13.106	 19.683838	
13.1393	 19.714355	
13.1725	 19.775391	
13.2058	 19.653320	
13.2391	 19.760132	
13.2723	 19.638062	
13.3056	 19.653320	
13.3389	 19.577026	
13.3721	 19.531250	
13.4054	 19.515991	
13.4387	 19.653320	
13.4719	 19.531250	
13.5052	 19.592285	
13.5384	 19.546509	
13.5717	 19.485474	
13.605	 19.546509	
13.6382	 19.561768	
13.6715	 19.500732	
13.7048	 19.485474	
13.738	 19.546509	
13.7713	 19.485474	
13.8046	 19.531250	
13.8378	 19.577026	
13.8711	 19.470215	
13.9044	 19.470215	
13.9376	 19.592285	
13.9709	 19.531250	
14.0041	 19.454956	
14.0374	 19.622803	
14.0707	 19.561768	
14.1039	 19.470215	
14.1372	 19.546509	
14.1705	 19.515991	
14.2037	 19.546509	
14.237	 19.638062	
14.2703	 19.668579	
14.3035	 19.454956	
14.3368	 19.607544	
14.37	 19.638062	
14.4033	 19.622803	
14.4366	 19.714355	
14.4698	 19.638062	
14.5031	 19.653320	
14.5364	 19.714355	
14.5696	 19.622803	
14.6029	 19.653320	
14.6362	 19.683838	
14.6694	 19.622803	
14.7027	 19.668579	
14.736	 19.714355	
14.7692	 19.653320	
14.8025	 19.668579	
14.8357	 19.714355	
14.869	 19.653320	
14.9023	 19.653320	
14.9355	 19.668579	
14.9688	 19.607544	
15.0021	 19.699097	
15.0353	 19.653320	
15.0686	 19.622803	
15.1019	 19.775391	
15.1351	 19.668579	
15.1684	 19.622803	
15.2016	 19.653320	
15.2349	 19.699097	
15.2682	 19.607544	
15.3014	 19.714355	
15.3347	 19.714355	
15.368	 19.622803	
15.4012	 19.744873	
15.4345	 19.714355	
15.4678	 19.607544	
15.501	 19.683838	
15.5343	 19.836426	
15.5676	 19.668579	
15.6008	 19.622803	
15.6341	 19.668579	
15.6673	 19.546509	
15.7006	 19.592285	
15.7339	 19.638062	
15.7671	 19.577026	
15.8004	 19.638062	
15.8337	 19.653320	
15.8669	 19.531250	
15.9002	 19.577026	
15.9335	 19.607544	
15.9667	 19.577026	
16	 19.577026	
16.0332	 19.653320	
16.0665	 19.607544	
16.0998	 19.638062	
16.133	 19.592285	
16.1663	 19.531250	
16.1996	 19.653320	
